<?xml version="1.0" encoding="utf-8"?>
<!-- Generator: Adobe Illustrator 22.1.0, SVG Export Plug-In . SVG Version: 6.00 Build 0)  -->
<svg version="1.1" id="Layer_1" xmlns="http://www.w3.org/2000/svg" xmlns:xlink="http://www.w3.org/1999/xlink" x="0px" y="0px"
	 viewBox="0 0 168.6 50" style="enable-background:new 0 0 168.6 50;" xml:space="preserve">
<style type="text/css">
	.st0{fill:#FFFFFF;}
</style>
<title>qi-logo-website</title>
<g>
	<path class="st0" d="M20.4,42l1.6,5.5c0.1,0.5-0.2,0.7-0.7,0.7h-5c-0.4,0-0.7-0.2-0.8-0.7l-1.6-5.4C4.8,41.4,2.3,37,2.3,24.8
		c0-13.6,3-17.6,14.5-17.6s14.5,4,14.5,17.6C31.2,36.7,28.7,41.1,20.4,42z M24.1,24.8c0-8.7-1.2-11.4-7.4-11.4S9.4,16,9.4,24.8
		s1.2,11.3,7.4,11.3S24.1,33.4,24.1,24.8z"/>
	<path class="st0" d="M42.8,7.5c0.4,0,0.7,0.2,0.7,0.7v33.1c0,0.5-0.2,0.7-0.7,0.7h-5.7c-0.4,0-0.7-0.2-0.7-0.7V8.2
		c0-0.5,0.2-0.7,0.7-0.7H42.8z"/>
	<path class="st0" d="M62.4,7.7c0.3,0,0.5,0.2,0.5,0.5c0,0,0,0,0,0v18.5c0,0.3-0.1,0.4-0.4,0.4h-2.4c-0.3,0-0.4-0.1-0.4-0.4v-4.8
		c-1.1,0.1-2.2,0.2-3.3,0.1c-4.9,0-6-1.6-6-7.5c0-5.8,1.2-7.3,6.5-7.3C58.6,7.2,60.5,7.3,62.4,7.7z M56.7,10c-2.9,0-3.2,1-3.2,4.6
		c0,3.7,0.4,4.6,3.4,4.6c0.9,0,1.9,0,2.8-0.2V9.9L56.7,10z"/>
	<path class="st0" d="M78.6,7.3c0.2,0,0.4,0.1,0.4,0.3c0,0,0,0.1,0,0.1v13.4c0,0.3-0.1,0.4-0.4,0.4c-1.9,0.3-3.9,0.5-5.8,0.4
		c-4.9,0-6.2-0.8-6.2-6.2v-8c0-0.3,0.2-0.4,0.4-0.4h2.4c0.3,0,0.4,0.1,0.4,0.4v7.4c0,3.9,0.6,4.1,3,4.1h3V7.7c0-0.2,0.1-0.4,0.3-0.4
		c0,0,0.1,0,0.1,0L78.6,7.3z"/>
	<path class="st0" d="M94,11.5v9.1c0.1,0.4-0.2,0.7-0.5,0.8c-1.9,0.4-3.9,0.6-5.9,0.6c-3.7,0-5.5-0.6-5.5-4.4c0-3.3,1.8-4.2,5-4.2
		h3.8V12c0-1.5-0.9-2.1-3-2.1h-4.3c-0.3,0-0.4-0.1-0.4-0.4V8c0-0.3,0.1-0.4,0.4-0.4c1.4-0.2,2.9-0.4,4.3-0.3
		C92.5,7.2,94,8.7,94,11.5z M87.2,15.7c-1.4,0-2,0.4-2,1.8c0,1.5,0.7,1.9,2.7,1.9c1,0,2-0.1,3-0.3v-3.3H87.2z"/>
	<path class="st0" d="M110.1,13.4v8c0,0.2-0.1,0.4-0.3,0.4c0,0-0.1,0-0.1,0h-2.4c-0.2,0-0.4-0.1-0.4-0.3c0,0,0-0.1,0-0.1V14
		c0-3.9-0.6-4-3-4h-3v11.5c0,0.2-0.1,0.4-0.3,0.4c0,0-0.1,0-0.1,0H98c-0.3,0-0.4-0.1-0.4-0.4V8c0-0.3,0.1-0.4,0.4-0.4
		c1.9-0.3,3.9-0.5,5.9-0.4C108.8,7.2,110.1,7.9,110.1,13.4z"/>
	<path class="st0" d="M117.3,3.3c0.3-0.1,0.4,0.1,0.4,0.4v3.7h2.6c0.3,0,0.4,0.1,0.4,0.4v1.7c0,0.2-0.1,0.4-0.3,0.4c0,0-0.1,0-0.1,0
		h-2.6v8c0,1.2,0.3,1.4,1.6,1.4h1.2c0.3,0,0.4,0.1,0.4,0.4v1.7c0,0.2-0.1,0.4-0.4,0.5c0,0,0,0,0,0c-0.6,0.1-1.2,0.2-1.9,0.2
		c-2,0-4.2-0.1-4.2-3.2V9.8h-1.5c-0.2,0-0.4-0.1-0.4-0.3c0,0,0-0.1,0-0.1V7.7c0-0.2,0.1-0.4,0.3-0.4c0,0,0.1,0,0.1,0h1.5v-3
		c0-0.3,0.1-0.4,0.4-0.4L117.3,3.3z"/>
	<path class="st0" d="M135.7,14.3v0.8c0,0.5-0.2,0.7-0.9,0.7h-8.3c0.1,2.8,0.7,3.4,3.3,3.4h4.5c0.2,0,0.4,0.1,0.4,0.3
		c0,0,0,0.1,0,0.1v1.6c0,0.2-0.1,0.4-0.3,0.4c0,0,0,0,0,0c-1.6,0.2-3.1,0.3-4.7,0.3c-5.1,0-6.3-1.5-6.3-7.4s1.2-7.4,6.3-7.4
		C134.5,7.2,135.6,8.6,135.7,14.3z M126.5,13.5h6c0-2.8-0.6-3.6-2.9-3.6S126.5,10.7,126.5,13.5L126.5,13.5z"/>
	<path class="st0" d="M150.5,1.8c0.3,0,0.4,0.1,0.4,0.4v18.7c0,0.3-0.1,0.5-0.4,0.5c0,0-0.1,0-0.1,0c-1.9,0.3-3.7,0.5-5.6,0.5
		c-5.3,0-6.5-1.5-6.5-7.4s1.2-7.4,6-7.4c1.1,0,2.2,0,3.4,0.2V2.2c0-0.3,0.1-0.4,0.4-0.4L150.5,1.8z M144.9,9.9
		c-2.9,0-3.3,0.9-3.3,4.6c0,3.6,0.3,4.6,3.2,4.6c1,0,2-0.1,2.9-0.2v-9H144.9z"/>
	<path class="st0" d="M165.8,11.5v9.1c0.1,0.4-0.2,0.7-0.5,0.8c-1.9,0.4-3.9,0.6-5.9,0.6c-3.7,0-5.5-0.6-5.5-4.4
		c0-3.3,1.8-4.2,5-4.2h3.8V12c0-1.5-0.9-2.1-3-2.1h-4.3c-0.3,0-0.4-0.1-0.4-0.4V8c0-0.3,0.1-0.4,0.4-0.4c1.4-0.2,2.9-0.4,4.3-0.3
		C164.3,7.2,165.8,8.7,165.8,11.5z M159,15.7c-1.4,0-2,0.4-2,1.8c0,1.5,0.7,1.9,2.6,1.9c1,0,2-0.1,3-0.3v-3.3L159,15.7z"/>
	<path class="st0" d="M54.1,29.8c0,0.7-0.6,1.2-1.3,1.2c-0.7,0-1.2-0.6-1.2-1.2c0-0.7,0.6-1.2,1.3-1.2
		C53.6,28.6,54.1,29.1,54.1,29.8z M53.6,32.5c0.1,0,0.2,0.1,0.3,0.2c0,0,0,0,0,0.1v9c0,0.1-0.1,0.2-0.2,0.3c0,0,0,0-0.1,0h-1.5
		c-0.1,0-0.2-0.1-0.3-0.2c0,0,0,0,0-0.1v-9c0-0.1,0.1-0.2,0.2-0.3c0,0,0,0,0.1,0H53.6z"/>
	<path class="st0" d="M69.5,36.5v5.3c0,0.1-0.1,0.3-0.2,0.3c0,0,0,0,0,0h-1.5c-0.1,0-0.2-0.1-0.3-0.2c0,0,0,0,0-0.1v-4.9
		c0-2.6-0.4-2.7-2-2.7h-2v7.5c0,0.1-0.1,0.2-0.2,0.3c0,0,0,0-0.1,0h-1.6c-0.2,0-0.2-0.1-0.2-0.3V33c0-0.2,0.1-0.2,0.2-0.3
		c1.3-0.2,2.6-0.3,3.9-0.3C68.7,32.5,69.5,32.9,69.5,36.5z"/>
	<path class="st0" d="M78.9,29.8c0.1,0.6-0.4,1.1-1,1.2c-0.1,0-0.2,0-0.3,0c-0.7,0-1.2-0.5-1.2-1.2s0.5-1.2,1.2-1.2c0,0,0,0,0,0
		c0.6-0.1,1.2,0.3,1.2,0.9C78.9,29.7,78.9,29.7,78.9,29.8z M78.5,32.5c0.1,0,0.2,0.1,0.3,0.2c0,0,0,0,0,0.1v9c0,0.1-0.1,0.2-0.2,0.3
		c0,0,0,0-0.1,0h-1.6c-0.1,0-0.2-0.1-0.3-0.2c0,0,0,0,0-0.1v-9c0-0.1,0.1-0.2,0.2-0.3c0,0,0,0,0.1,0H78.5z"/>
	<path class="st0" d="M89,29.9c0.2-0.1,0.3,0,0.3,0.2v2.4H91c0.1,0,0.3,0.1,0.3,0.2c0,0,0,0,0,0v1.1c0,0.1-0.1,0.3-0.2,0.3
		c0,0,0,0,0,0h-1.7v5.3c0,0.8,0.2,0.9,1.1,0.9h0.8c0.2,0,0.3,0.1,0.3,0.2v1.1c0,0.2-0.1,0.3-0.2,0.3c0,0,0,0,0,0
		c-0.4,0.1-0.8,0.1-1.2,0.1c-1.3,0-2.7,0-2.7-2.1v-5.9h-1c-0.1,0-0.3-0.1-0.3-0.2c0,0,0,0,0-0.1v-1.1c0-0.2,0.1-0.3,0.3-0.3h1v-2
		c0-0.1,0.1-0.3,0.2-0.3c0,0,0,0,0,0L89,29.9z"/>
	<path class="st0" d="M100.9,29.8c0.1,0.6-0.4,1.1-1,1.2c-0.1,0-0.2,0-0.3,0c-0.7,0-1.2-0.5-1.2-1.2s0.5-1.2,1.2-1.2c0,0,0,0,0,0
		c0.6-0.1,1.2,0.3,1.2,0.9C100.9,29.7,100.9,29.7,100.9,29.8z M100.4,32.5c0.1,0,0.2,0.1,0.3,0.2c0,0,0,0,0,0.1v9
		c0,0.1-0.1,0.2-0.2,0.3c0,0,0,0-0.1,0h-1.6c-0.1,0-0.2-0.1-0.3-0.2c0,0,0,0,0-0.1v-9c0-0.1,0.1-0.2,0.2-0.3c0,0,0,0,0.1,0H100.4z"
		/>
	<path class="st0" d="M115.2,35.3v6c0,0.2-0.1,0.5-0.3,0.5c-1.3,0.3-2.6,0.4-3.9,0.4c-2.4,0-3.6-0.4-3.6-2.9c0-2.2,1.2-2.7,3.3-2.7
		h2.5v-0.9c0-1-0.6-1.4-1.9-1.4h-2.8c-0.2,0-0.3-0.1-0.3-0.3V33c0-0.2,0.1-0.2,0.2-0.3c0.9-0.2,1.9-0.2,2.8-0.2
		C114.2,32.5,115.2,33.4,115.2,35.3z M110.8,38c-0.9,0-1.3,0.3-1.3,1.2c0,1,0.5,1.2,1.7,1.2c0.7,0,1.3-0.1,2-0.2V38H110.8z"/>
	<path class="st0" d="M124.5,29.9c0.2-0.1,0.3,0,0.3,0.2v2.4h1.7c0.1,0,0.3,0.1,0.3,0.2c0,0,0,0,0,0v1.1c0,0.1-0.1,0.3-0.2,0.3
		c0,0,0,0,0,0h-1.7v5.3c0,0.8,0.2,0.9,1.1,0.9h0.8c0.2,0,0.3,0.1,0.3,0.2v1.1c0,0.2-0.1,0.3-0.2,0.3c0,0,0,0,0,0
		c-0.4,0.1-0.8,0.1-1.2,0.1c-1.3,0-2.7,0-2.7-2.1v-5.9h-1c-0.1,0-0.3-0.1-0.3-0.2c0,0,0,0,0,0v-1.1c0-0.1,0.1-0.3,0.2-0.3
		c0,0,0,0,0,0h1v-2c0-0.2,0.1-0.2,0.2-0.3L124.5,29.9z"/>
	<path class="st0" d="M136.1,29.8c0,0.7-0.6,1.2-1.3,1.2c-0.7,0-1.2-0.6-1.2-1.2c0-0.7,0.6-1.2,1.3-1.2
		C135.5,28.6,136.1,29.1,136.1,29.8z M135.6,32.5c0.1,0,0.2,0.1,0.3,0.2c0,0,0,0,0,0.1v9c0,0.1-0.1,0.2-0.2,0.3c0,0,0,0-0.1,0H134
		c-0.1,0-0.2-0.1-0.3-0.2c0,0,0,0,0-0.1v-9c0-0.1,0.1-0.2,0.2-0.3c0,0,0,0,0.1,0H135.6z"/>
	<path class="st0" d="M151.5,32.5c0.2,0,0.2,0.1,0.2,0.3l-2,7.3c-0.5,1.8-0.6,2-2.5,2c-1.8,0-2-0.2-2.5-2l-2-7.3
		c0-0.2,0-0.3,0.2-0.3h1.7c0.1,0,0.2,0.1,0.2,0.3l1.8,6.9c0.2,0.6,0.2,0.7,0.5,0.7s0.4-0.1,0.6-0.7l1.7-6.9c0.1-0.2,0.1-0.3,0.2-0.3
		H151.5z"/>
	<path class="st0" d="M165.4,37.1v0.5c0,0.3-0.1,0.5-0.6,0.5h-5.5c0.1,1.8,0.5,2.2,2.1,2.2h2.9c0.1,0,0.2,0.1,0.3,0.2c0,0,0,0,0,0.1
		v1.1c0,0.1-0.1,0.3-0.2,0.3c0,0,0,0,0,0c-1,0.1-2.1,0.2-3.1,0.2c-3.4,0-4.1-1-4.1-4.8s0.8-4.9,4.1-4.9S165.4,33.4,165.4,37.1z
		 M159.3,36.6h4c0-1.9-0.4-2.3-1.9-2.3S159.4,34.7,159.3,36.6L159.3,36.6z"/>
</g>
</svg>
